<?xml version="1.0" encoding="UTF-8"?>
<svg height="16px" viewBox="0 0 16 16" width="16px" xmlns="http://www.w3.org/2000/svg" xmlns:xlink="http://www.w3.org/1999/xlink">
    <filter id="a" height="100%" width="100%" x="0%" y="0%">
        <feColorMatrix in="SourceGraphic" type="matrix" values="0 0 0 0 1 0 0 0 0 1 0 0 0 0 1 0 0 0 1 0"/>
    </filter>
    <mask id="b">
        <g filter="url(#a)">
            <path d="m 0 0 h 16 v 16 h -16 z" fill-opacity="0.3"/>
        </g>
    </mask>
    <clipPath id="c">
        <path d="m 0 0 h 1024 v 800 h -1024 z"/>
    </clipPath>
    <mask id="d">
        <g filter="url(#a)">
            <path d="m 0 0 h 16 v 16 h -16 z" fill-opacity="0.05"/>
        </g>
    </mask>
    <clipPath id="e">
        <path d="m 0 0 h 1024 v 800 h -1024 z"/>
    </clipPath>
    <mask id="f">
        <g filter="url(#a)">
            <path d="m 0 0 h 16 v 16 h -16 z" fill-opacity="0.05"/>
        </g>
    </mask>
    <clipPath id="g">
        <path d="m 0 0 h 1024 v 800 h -1024 z"/>
    </clipPath>
    <mask id="h">
        <g filter="url(#a)">
            <path d="m 0 0 h 16 v 16 h -16 z" fill-opacity="0.05"/>
        </g>
    </mask>
    <clipPath id="i">
        <path d="m 0 0 h 1024 v 800 h -1024 z"/>
    </clipPath>
    <mask id="j">
        <g filter="url(#a)">
            <path d="m 0 0 h 16 v 16 h -16 z" fill-opacity="0.05"/>
        </g>
    </mask>
    <clipPath id="k">
        <path d="m 0 0 h 1024 v 800 h -1024 z"/>
    </clipPath>
    <mask id="l">
        <g filter="url(#a)">
            <path d="m 0 0 h 16 v 16 h -16 z" fill-opacity="0.05"/>
        </g>
    </mask>
    <clipPath id="m">
        <path d="m 0 0 h 1024 v 800 h -1024 z"/>
    </clipPath>
    <mask id="n">
        <g filter="url(#a)">
            <path d="m 0 0 h 16 v 16 h -16 z" fill-opacity="0.05"/>
        </g>
    </mask>
    <clipPath id="o">
        <path d="m 0 0 h 1024 v 800 h -1024 z"/>
    </clipPath>
    <mask id="p">
        <g filter="url(#a)">
            <path d="m 0 0 h 16 v 16 h -16 z" fill-opacity="0.3"/>
        </g>
    </mask>
    <clipPath id="q">
        <path d="m 0 0 h 1024 v 800 h -1024 z"/>
    </clipPath>
    <mask id="r">
        <g filter="url(#a)">
            <path d="m 0 0 h 16 v 16 h -16 z" fill-opacity="0.5"/>
        </g>
    </mask>
    <clipPath id="s">
        <path d="m 0 0 h 1024 v 800 h -1024 z"/>
    </clipPath>
    <mask id="t">
        <g filter="url(#a)">
            <path d="m 0 0 h 16 v 16 h -16 z" fill-opacity="0.4"/>
        </g>
    </mask>
    <clipPath id="u">
        <path d="m 0 0 h 1024 v 800 h -1024 z"/>
    </clipPath>
    <mask id="v">
        <g filter="url(#a)">
            <path d="m 0 0 h 16 v 16 h -16 z" fill-opacity="0.4"/>
        </g>
    </mask>
    <clipPath id="w">
        <path d="m 0 0 h 1024 v 800 h -1024 z"/>
    </clipPath>
    <mask id="x">
        <g filter="url(#a)">
            <path d="m 0 0 h 16 v 16 h -16 z" fill-opacity="0.5"/>
        </g>
    </mask>
    <clipPath id="y">
        <path d="m 0 0 h 1024 v 800 h -1024 z"/>
    </clipPath>
    <mask id="z">
        <g filter="url(#a)">
            <path d="m 0 0 h 16 v 16 h -16 z" fill-opacity="0.5"/>
        </g>
    </mask>
    <clipPath id="A">
        <path d="m 0 0 h 1024 v 800 h -1024 z"/>
    </clipPath>
    <g clip-path="url(#c)" mask="url(#b)" transform="matrix(1 0 0 1 -40 -200)">
        <path d="m 562.460938 212.058594 h 10.449218 c -1.183594 0.492187 -1.296875 2.460937 0 3 h -10.449218 z m 0 0" fill="#2e3436"/>
    </g>
    <g clip-path="url(#e)" mask="url(#d)" transform="matrix(1 0 0 1 -40 -200)">
        <path d="m 16 632 h 1 v 1 h -1 z m 0 0" fill="#2e3436" fill-rule="evenodd"/>
    </g>
    <g clip-path="url(#g)" mask="url(#f)" transform="matrix(1 0 0 1 -40 -200)">
        <path d="m 17 631 h 1 v 1 h -1 z m 0 0" fill="#2e3436" fill-rule="evenodd"/>
    </g>
    <g clip-path="url(#i)" mask="url(#h)" transform="matrix(1 0 0 1 -40 -200)">
        <path d="m 18 634 h 1 v 1 h -1 z m 0 0" fill="#2e3436" fill-rule="evenodd"/>
    </g>
    <g clip-path="url(#k)" mask="url(#j)" transform="matrix(1 0 0 1 -40 -200)">
        <path d="m 16 634 h 1 v 1 h -1 z m 0 0" fill="#2e3436" fill-rule="evenodd"/>
    </g>
    <g clip-path="url(#m)" mask="url(#l)" transform="matrix(1 0 0 1 -40 -200)">
        <path d="m 17 635 h 1 v 1 h -1 z m 0 0" fill="#2e3436" fill-rule="evenodd"/>
    </g>
    <g clip-path="url(#o)" mask="url(#n)" transform="matrix(1 0 0 1 -40 -200)">
        <path d="m 19 635 h 1 v 1 h -1 z m 0 0" fill="#2e3436" fill-rule="evenodd"/>
    </g>
    <g clip-path="url(#q)" mask="url(#p)" transform="matrix(1 0 0 1 -40 -200)">
        <path d="m 136 660 v 7 h 7 v -7 z m 0 0" fill="#2e3436"/>
    </g>
    <g clip-path="url(#s)" mask="url(#r)" transform="matrix(1 0 0 1 -40 -200)">
        <path d="m 199 642 h 3 v 12 h -3 z m 0 0" fill="#2e3436"/>
    </g>
    <path d="m 6.707031 0 c -0.152343 0.0117188 -0.289062 0.09375 -0.371093 0.214844 c -0.085938 0.125 -0.109376 0.28125 -0.066407 0.425781 l 0.425781 1.542969 c -0.425781 0.109375 -0.839843 0.261718 -1.238281 0.457031 l -1.023437 -1.765625 c -0.09375 -0.164062 -0.269532 -0.261719 -0.457032 -0.253906 c -0.175781 0.003906 -0.335937 0.105468 -0.421874 0.261718 c -0.085938 0.152344 -0.078126 0.34375 0.011718 0.496094 l 1.015625 1.757813 c -0.335937 0.214843 -0.664062 0.449219 -0.976562 0.703125 l -1.25 -1.253906 c -0.097657 -0.097657 -0.226563 -0.152344 -0.363281 -0.152344 c -0.199219 0 -0.382813 0.125 -0.460938 0.3125 c -0.074219 0.1875 -0.03125 0.402344 0.113281 0.546875 l 1.222657 1.21875 c -0.28125 0.265625 -0.546876 0.523437 -0.792969 0.792969 l -0.71875 -0.71875 c -0.097657 -0.097657 -0.226563 -0.152344 -0.363281 -0.152344 c -0.199219 0 -0.382813 0.125 -0.460938 0.3125 c -0.074219 0.1875 -0.03125 0.402344 0.113281 0.546875 l 0.765625 0.761719 c -0.886718 1.078124 -1.410156 1.945312 -1.410156 1.945312 s 3.582031 6 8 6 s 8 -6 8 -6 s -0.523438 -0.867188 -1.410156 -1.945312 l 0.765625 -0.761719 c 0.144531 -0.144531 0.1875 -0.363281 0.109375 -0.554688 c -0.082032 -0.1875 -0.269532 -0.308593 -0.476563 -0.304687 c -0.128906 0.003906 -0.25 0.058594 -0.34375 0.152344 l -0.71875 0.71875 c -0.199219 -0.21875 -0.410156 -0.425782 -0.632812 -0.644532 l 1.101562 -1.414062 c 0.125 -0.152344 0.144531 -0.367188 0.054688 -0.539063 c -0.089844 -0.175781 -0.273438 -0.285156 -0.46875 -0.273437 c -0.148438 0.007812 -0.285157 0.078125 -0.375 0.199218 l -1.050781 1.34375 c -0.261719 -0.21875 -0.527344 -0.433593 -0.808594 -0.628906 l 1.074218 -1.738281 c 0.097657 -0.15625 0.101563 -0.359375 0.007813 -0.519531 c -0.097656 -0.164063 -0.273437 -0.257813 -0.460937 -0.246094 c -0.164063 0.007812 -0.3125 0.097656 -0.398438 0.242188 l -1.074219 1.738281 c -0.367187 -0.203125 -0.742187 -0.371094 -1.128906 -0.503907 l 0.570313 -1.648437 c 0.054687 -0.152344 0.035156 -0.320313 -0.058594 -0.453125 c -0.089844 -0.1367188 -0.242188 -0.21484375 -0.402344 -0.21875 c -0.21875 -0.00390625 -0.414062 0.136719 -0.480469 0.34375 l -0.601562 1.722656 c -0.257813 -0.042968 -0.523438 -0.066406 -0.792969 -0.066406 c -0.105469 0 -0.207031 0.019531 -0.3125 0.027344 l -0.457031 -1.652344 c -0.054688 -0.21875 -0.25 -0.37109375 -0.472657 -0.375 c -0.019531 0 -0.035156 0 -0.054687 0 z m 1.292969 4 c 3.867188 0 6 4 6 4 s -2.132812 4 -6 4 s -6 -4 -6 -4 s 2.132812 -4 6 -4 z m 0 1 c -1.65625 0 -3 1.34375 -3 3 s 1.34375 3 3 3 s 3 -1.34375 3 -3 s -1.34375 -3 -3 -3 z m -0.492188 0.828125 c 0.375 0 0.679688 0.308594 0.679688 0.695313 c 0 0.386718 -0.304688 0.714843 -0.679688 0.714843 s -0.683593 -0.328125 -0.683593 -0.714843 c 0 -0.386719 0.308593 -0.695313 0.683593 -0.695313 z m 0 0" fill="#2e3436"/>
    <g clip-path="url(#u)" mask="url(#t)" transform="matrix(1 0 0 1 -40 -200)">
        <path d="m 209.5 144.160156 c 0.277344 0 0.5 0.222656 0.5 0.5 v 1 c 0 0.277344 -0.222656 0.5 -0.5 0.5 s -0.5 -0.222656 -0.5 -0.5 v -1 c 0 -0.277344 0.222656 -0.5 0.5 -0.5 z m 0 0" fill="#2e3436"/>
    </g>
    <g clip-path="url(#w)" mask="url(#v)" transform="matrix(1 0 0 1 -40 -200)">
        <path d="m 206.5 144.160156 c 0.277344 0 0.5 0.222656 0.5 0.5 v 1 c 0 0.277344 -0.222656 0.5 -0.5 0.5 s -0.5 -0.222656 -0.5 -0.5 v -1 c 0 -0.277344 0.222656 -0.5 0.5 -0.5 z m 0 0" fill="#2e3436"/>
    </g>
    <g clip-path="url(#y)" mask="url(#x)" transform="matrix(1 0 0 1 -40 -200)">
        <path d="m 229.5 143.160156 c -0.546875 0 -1 0.457032 -1 1 c 0 0.546875 0.453125 1 1 1 s 1 -0.453125 1 -1 c 0 -0.542968 -0.453125 -1 -1 -1 z m 0 0" fill="#2e3436"/>
    </g>
    <g clip-path="url(#A)" mask="url(#z)" transform="matrix(1 0 0 1 -40 -200)">
        <path d="m 226.453125 143.160156 c -0.519531 0 -0.953125 0.433594 -0.953125 0.953125 v 0.09375 c 0 0.519531 0.433594 0.953125 0.953125 0.953125 h 0.09375 c 0.519531 0 0.953125 -0.433594 0.953125 -0.953125 v -0.09375 c 0 -0.519531 -0.433594 -0.953125 -0.953125 -0.953125 z m 0 0" fill="#2e3436"/>
    </g>
</svg>
